# Blender v2.77 (sub 0) OBJ File: 'drawer.blend'
# www.blender.org
mtllib drawerCollider.mtl
o Cube.001_Cube.003
v -26.250000 -1.950000 6.562500
v -26.250000 1.950000 6.562500
v -26.250000 1.950000 -6.562500
v 26.250000 1.950000 6.562500
v 26.250000 1.950000 -6.562500
v -25.338509 1.950000 5.659858
v 25.338509 1.950000 -5.659858
v 25.338509 1.950000 5.659858
v -25.338509 -1.089279 5.659858
v 26.250000 -1.950000 6.562500
v 26.250000 -1.950000 -6.562500
v -26.250000 -1.950000 -6.562500
v -25.338509 1.950000 -5.659858
v 25.338509 -1.089279 5.659858
v 25.338509 -1.089279 -5.659858
v -25.338509 -1.089279 -5.659858
v 26.250000 -1.950000 6.562500
v 26.250000 1.950000 6.562500
v 26.250000 1.950000 -6.562500
v -26.250000 1.950000 6.562500
v -26.250000 1.950000 -6.562500
v 25.338509 1.950000 5.659858
v -25.338509 1.950000 -5.659858
v -25.338509 1.950000 5.659858
v 25.338509 -1.089279 5.659858
v -26.250000 -1.950000 6.562500
v -26.250000 -1.950000 -6.562500
v 26.250000 -1.950000 -6.562500
v 25.338509 1.950000 -5.659858
v -25.338509 -1.089279 5.659858
v -25.338509 -1.089279 -5.659858
v 25.338509 -1.089279 -5.659858
vt 1.0000 0.0000
vt 1.0000 0.2446
vt 0.9295 0.2446
vt 0.9295 0.0000
vt 0.8197 0.0000
vt 0.8197 0.9757
vt 0.7493 0.9757
vt 0.7493 0.0000
vt 1.0000 0.2446
vt 1.0000 0.4863
vt 0.9295 0.4863
vt 0.9295 0.2446
vt 0.6788 0.9768
vt 0.6788 0.0000
vt 0.7493 0.0000
vt 0.7493 0.9768
vt 0.4743 0.9811
vt 0.2371 0.9811
vt 0.2371 0.0000
vt 0.4743 0.0000
vt 0.2371 0.9811
vt 0.0000 0.9811
vt 0.0163 0.9641
vt 0.2208 0.9641
vt 0.9295 0.9058
vt 0.9295 0.6972
vt 0.9844 0.6972
vt 0.9844 0.9058
vt 0.0000 0.0000
vt 0.0163 0.0170
vt 0.2371 0.0000
vt 0.2208 0.0170
vt 0.6788 0.9471
vt 0.4743 0.9471
vt 0.4743 0.0000
vt 0.6788 0.0000
vt 0.9295 0.0000
vt 0.9295 0.9418
vt 0.8746 0.9418
vt 0.8746 0.0000
vt 0.8197 0.9429
vt 0.8197 0.0000
vt 0.8746 0.0000
vt 0.8746 0.9429
vt 0.9844 0.4863
vt 0.9844 0.6972
vt 0.9295 0.6972
vt 0.9295 0.4863
vt 1.0000 0.0000
vt 0.9295 0.0000
vt 0.9295 0.2446
vt 1.0000 0.2446
vt 0.8197 0.0000
vt 0.7493 0.0000
vt 0.7493 0.9757
vt 0.8197 0.9757
vt 1.0000 0.2446
vt 0.9295 0.2446
vt 0.9295 0.4863
vt 1.0000 0.4863
vt 0.6788 0.9768
vt 0.7493 0.9768
vt 0.7493 0.0000
vt 0.6788 0.0000
vt 0.4743 0.9811
vt 0.4743 0.0000
vt 0.2371 0.0000
vt 0.2371 0.9811
vt 0.2371 0.9811
vt 0.2208 0.9641
vt 0.0163 0.9641
vt 0.0000 0.9811
vt 0.9295 0.9058
vt 0.9844 0.9058
vt 0.9844 0.6972
vt 0.9295 0.6972
vt 0.0163 0.0170
vt 0.0000 0.0000
vt 0.2371 0.0000
vt 0.2208 0.0170
vt 0.6788 0.9471
vt 0.6788 0.0000
vt 0.4743 0.0000
vt 0.4743 0.9471
vt 0.9295 0.0000
vt 0.8746 0.0000
vt 0.8746 0.9418
vt 0.9295 0.9418
vt 0.8197 0.9429
vt 0.8746 0.9429
vt 0.8746 0.0000
vt 0.8197 0.0000
vt 0.9844 0.4863
vt 0.9295 0.4863
vt 0.9295 0.6972
vt 0.9844 0.6972
vn -1.0000 0.0000 0.0000
vn 0.0000 0.0000 -1.0000
vn 1.0000 0.0000 0.0000
vn 0.0000 0.0000 1.0000
vn 0.0000 -1.0000 0.0000
vn 0.0000 1.0000 0.0000
usemtl Metal
s off
f 2/1/1 3/2/1 12/3/1 1/4/1
f 3/5/2 5/6/2 11/7/2 12/8/2
f 5/9/3 4/10/3 10/11/3 11/12/3
f 4/13/4 2/14/4 1/15/4 10/16/4
f 1/17/5 12/18/5 11/19/5 10/20/5
f 3/21/6 2/22/6 6/23/6 13/24/6
f 13/25/3 6/26/3 9/27/3 16/28/3
f 2/22/6 4/29/6 8/30/6 6/23/6
f 5/31/6 3/21/6 13/24/6 7/32/6
f 4/29/6 5/31/6 7/32/6 8/30/6
f 14/33/6 15/34/6 16/35/6 9/36/6
f 6/37/2 8/38/2 14/39/2 9/40/2
f 7/41/4 13/42/4 16/43/4 15/44/4
f 8/45/1 7/46/1 15/47/1 14/48/1
f 18/49/3 17/50/3 28/51/3 19/52/3
f 19/53/2 28/54/2 27/55/2 21/56/2
f 21/57/1 27/58/1 26/59/1 20/60/1
f 20/61/4 26/62/4 17/63/4 18/64/4
f 17/65/5 26/66/5 27/67/5 28/68/5
f 19/69/6 29/70/6 22/71/6 18/72/6
f 29/73/1 32/74/1 25/75/1 22/76/1
f 18/72/6 22/71/6 24/77/6 20/78/6
f 21/79/6 23/80/6 29/70/6 19/69/6
f 20/78/6 24/77/6 23/80/6 21/79/6
f 30/81/6 25/82/6 32/83/6 31/84/6
f 22/85/2 25/86/2 30/87/2 24/88/2
f 23/89/4 31/90/4 32/91/4 29/92/4
f 24/93/3 30/94/3 31/95/3 23/96/3
